<svg width="15" height="13" viewBox="0 0 15 13" fill="none" xmlns="http://www.w3.org/2000/svg">
<path d="M8.45835 12.9684C8.36392 12.9688 8.27034 12.9504 8.18313 12.9142C8.09591 12.878 8.01679 12.8248 7.95044 12.7576C7.81584 12.6228 7.74023 12.4401 7.74023 12.2496C7.74023 12.0592 7.81584 11.8765 7.95044 11.7417L13.1925 6.49965L7.95044 1.25757C7.82348 1.12132 7.75436 0.941104 7.75764 0.754899C7.76093 0.568693 7.83636 0.391032 7.96805 0.259345C8.09974 0.127658 8.2774 0.0522255 8.4636 0.0489401C8.64981 0.0456547 8.83002 0.114773 8.96627 0.241733L14.7163 5.99173C14.8509 6.1265 14.9265 6.30918 14.9265 6.49965C14.9265 6.69012 14.8509 6.8728 14.7163 7.00757L8.96627 12.7576C8.89991 12.8248 8.8208 12.878 8.73358 12.9142C8.64636 12.9504 8.55279 12.9688 8.45835 12.9684Z" fill="#FDCB44"/>
<path d="M14.2083 7.21875H0.791626C0.601002 7.21875 0.418185 7.14302 0.283393 7.00823C0.148601 6.87344 0.072876 6.69062 0.072876 6.5C0.072876 6.30938 0.148601 6.12656 0.283393 5.99177C0.418185 5.85698 0.601002 5.78125 0.791626 5.78125H14.2083C14.3989 5.78125 14.5817 5.85698 14.7165 5.99177C14.8513 6.12656 14.927 6.30938 14.927 6.5C14.927 6.69062 14.8513 6.87344 14.7165 7.00823C14.5817 7.14302 14.3989 7.21875 14.2083 7.21875Z" fill="#FDCB44"/>
</svg>
