<svg width="64" height="64" viewBox="0 0 64 64" fill="none" xmlns="http://www.w3.org/2000/svg">
<rect width="64" height="64" rx="32" fill="#FEEEC1"/>
<g clip-path="url(#clip0_4464_34009)">
<path d="M44.4584 23.1769H38.0521V21.0415C37.9907 20.1938 37.5976 19.4044 36.958 18.8448C36.3183 18.2851 35.4838 18.0002 34.6355 18.0519H30.3646C29.5163 18.0002 28.6818 18.2851 28.0421 18.8448C27.4025 19.4044 27.0093 20.1938 26.948 21.0415V23.1769H20.5417C19.7502 23.1814 18.9924 23.4978 18.4327 24.0575C17.873 24.6171 17.5566 25.375 17.5521 26.1665V43.2498C17.5566 44.0413 17.873 44.7991 18.4327 45.3588C18.9924 45.9185 19.7502 46.2349 20.5417 46.2394H44.4584C45.2499 46.2349 46.0077 45.9185 46.5674 45.3588C47.1271 44.7991 47.4435 44.0413 47.448 43.2498V26.1665C47.4435 25.375 47.1271 24.6171 46.5674 24.0575C46.0077 23.4978 45.2499 23.1814 44.4584 23.1769ZM29.5105 21.0415C29.5105 20.9048 29.835 20.6144 30.3646 20.6144H34.6355C35.165 20.6144 35.4896 20.9048 35.4896 21.0415V23.1769H29.5105V21.0415ZM20.5417 25.7394H44.4584C44.5716 25.7394 44.6803 25.7844 44.7604 25.8645C44.8405 25.9446 44.8855 26.0532 44.8855 26.1665V31.7185H20.1146V26.1665C20.1146 26.0532 20.1596 25.9446 20.2397 25.8645C20.3198 25.7844 20.4284 25.7394 20.5417 25.7394ZM26.948 34.281H38.0521V36.8435H26.948V34.281ZM44.4584 43.6769H20.5417C20.4284 43.6769 20.3198 43.6319 20.2397 43.5518C20.1596 43.4717 20.1146 43.3631 20.1146 43.2498V34.281H24.3855V38.1248C24.3899 38.4632 24.5263 38.7866 24.7656 39.0259C25.0049 39.2652 25.3283 39.4016 25.6667 39.406H39.3334C39.6718 39.4016 39.9951 39.2652 40.2345 39.0259C40.4738 38.7866 40.6102 38.4632 40.6146 38.1248V34.281H44.8855V43.2498C44.8855 43.3631 44.8405 43.4717 44.7604 43.5518C44.6803 43.6319 44.5716 43.6769 44.4584 43.6769Z" fill="#447468"/>
</g>
<defs>
<clipPath id="clip0_4464_34009">
<rect width="40" height="40" fill="white" transform="translate(12 12)"/>
</clipPath>
</defs>
</svg>
