<svg width="25" height="25" viewBox="0 0 25 25" fill="none" xmlns="http://www.w3.org/2000/svg">
<path d="M5.29543 4.64258H18.9121C20.6601 4.64258 22.0886 5.99903 22.1851 7.70816L22.1902 7.89258V17.3926C22.1902 19.1256 20.822 20.5418 19.0981 20.6375L18.9121 20.6426H5.29543C3.54742 20.6426 2.11896 19.2861 2.02252 17.577L2.01733 17.3926V7.89258C2.01733 6.15955 3.38551 4.74333 5.10942 4.64772L5.29543 4.64258ZM20.6773 10.0156L12.4561 14.3063C12.2671 14.4049 12.0464 14.419 11.8484 14.3486L11.7515 14.3063L3.5303 10.0166V17.3926C3.5303 18.3108 4.24352 19.0638 5.15066 19.1368L5.29543 19.1426H18.9121C19.8383 19.1426 20.5978 18.4355 20.6714 17.5361L20.6773 17.3926V10.0156ZM18.9121 6.14258H5.29543C4.36932 6.14258 3.60979 6.84969 3.53615 7.74905L3.5303 7.89258V8.32158L12.1038 12.7951L20.6773 8.32058V7.89258C20.6773 6.97441 19.9641 6.22139 19.0569 6.14838L18.9121 6.14258Z" fill="#B4B6C4"/>
</svg>
