<svg width="25" height="25" viewBox="0 0 25 25" fill="none" xmlns="http://www.w3.org/2000/svg">
<path d="M7.11783 3.06102L8.29491 2.70926C9.62886 2.31062 11.054 2.95485 11.6253 4.21468L12.5348 6.2204C13.0217 7.29423 12.7651 8.55624 11.8966 9.35919L10.3894 10.7527C10.3453 10.7934 10.3174 10.8484 10.3108 10.9078C10.266 11.3049 10.5376 12.0783 11.1632 13.1526C11.6182 13.9339 12.0299 14.4817 12.3804 14.7899C12.6246 15.0046 12.759 15.051 12.8162 15.0341L14.844 14.4195C15.9793 14.0754 17.2097 14.4857 17.9043 15.4402L19.1961 17.2152C20.0092 18.3324 19.8629 19.8737 18.8541 20.821L17.96 21.6604C16.9953 22.5662 15.622 22.9037 14.3423 22.5496C11.5644 21.7809 9.07373 19.4567 6.84274 15.6257C4.60864 11.7893 3.82473 8.4848 4.54738 5.71301C4.87808 4.44453 5.85256 3.43914 7.11783 3.06102ZM7.55447 4.49719C6.79531 4.72406 6.21062 5.3273 6.0122 6.08839C5.40434 8.4199 6.09915 11.3488 8.15301 14.8757C10.2041 18.3978 12.412 20.4581 14.749 21.1048C15.5169 21.3173 16.3408 21.1148 16.9197 20.5713L17.8137 19.7319C18.2723 19.3013 18.3388 18.6007 17.9692 18.0929L16.6774 16.3179C16.3616 15.8841 15.8023 15.6975 15.2863 15.854L13.2536 16.4701C12.0738 16.8188 11.0029 15.8773 9.85293 13.9026C9.07798 12.5719 8.71679 11.5432 8.80713 10.7413C8.85393 10.3258 9.04918 9.9407 9.35754 9.65561L10.8648 8.26216C11.2596 7.89718 11.3762 7.32354 11.1549 6.83544L10.2454 4.82972C9.98573 4.25707 9.33789 3.96423 8.73156 4.14543L7.55447 4.49719Z" fill="#B4B6C4"/>
</svg>
