<svg width="22" height="22" viewBox="0 0 22 22" fill="none" xmlns="http://www.w3.org/2000/svg">
<path d="M4.81207 11.9174C4.81165 11.827 4.82927 11.7375 4.8639 11.6541C4.89853 11.5707 4.94947 11.495 5.01374 11.4315C5.14265 11.3028 5.31738 11.2305 5.49957 11.2305C5.68176 11.2305 5.8565 11.3028 5.98541 11.4315L10.9996 16.4457L16.0137 11.4315C16.1441 11.3101 16.3164 11.244 16.4946 11.2471C16.6727 11.2503 16.8426 11.3224 16.9686 11.4484C17.0945 11.5743 17.1667 11.7443 17.1698 11.9224C17.173 12.1005 17.1068 12.2729 16.9854 12.4032L11.4854 17.9032C11.3565 18.0319 11.1818 18.1043 10.9996 18.1043C10.8174 18.1043 10.6426 18.0319 10.5137 17.9032L5.01374 12.4032C4.94947 12.3397 4.89853 12.2641 4.8639 12.1806C4.82927 12.0972 4.81165 12.0077 4.81207 11.9174Z" fill="#666666"/>
</svg>
