<svg width="22" height="24" viewBox="0 0 22 24" fill="none" xmlns="http://www.w3.org/2000/svg">
<path fill-rule="evenodd" clip-rule="evenodd" d="M1.0918 2.838C1.0918 2.35053 1.26621 1.88303 1.57668 1.53834C1.88714 1.19365 2.30822 1 2.74729 1H19.25C19.4675 0.999608 19.6831 1.04687 19.8842 1.13907C20.0853 1.23127 20.2681 1.36661 20.422 1.53734C20.5759 1.70807 20.698 1.91083 20.7813 2.13401C20.8646 2.3572 20.9074 2.59643 20.9073 2.838V21.16C20.9075 21.4016 20.8648 21.6409 20.7817 21.8642C20.6985 22.0875 20.5765 22.2904 20.4227 22.4613C20.2688 22.6322 20.0862 22.7678 19.8851 22.8602C19.684 22.9526 19.4685 23.0001 19.2509 23H2.74729C2.52981 23 2.31446 22.9524 2.11355 22.86C1.91264 22.7676 1.7301 22.6321 1.57636 22.4613C1.42262 22.2905 1.3007 22.0878 1.21756 21.8647C1.13441 21.6416 1.09168 21.4025 1.0918 21.161V2.838ZM8.93512 9.388H11.6183V10.884C12.0056 10.024 12.9964 9.25 14.4852 9.25C17.3396 9.25 18.016 10.963 18.016 14.106V19.928H15.1274V14.822C15.1274 13.032 14.7401 12.022 13.7566 12.022C12.392 12.022 11.8246 13.111 11.8246 14.822V19.928H8.93512V9.388ZM3.98125 19.791H6.87071V9.25H3.98125V19.79V19.791ZM7.28413 5.812C7.28958 6.08668 7.24555 6.35979 7.15464 6.61532C7.06373 6.87084 6.92777 7.10364 6.75472 7.30003C6.58168 7.49643 6.37505 7.65248 6.14695 7.75901C5.91885 7.86554 5.67389 7.92042 5.42643 7.92042C5.17897 7.92042 4.934 7.86554 4.70591 7.75901C4.47781 7.65248 4.27118 7.49643 4.09813 7.30003C3.92509 7.10364 3.78912 6.87084 3.69821 6.61532C3.6073 6.35979 3.56328 6.08668 3.56873 5.812C3.57942 5.27286 3.77984 4.75979 4.12706 4.38269C4.47428 4.00558 4.9407 3.79442 5.42643 3.79442C5.91216 3.79442 6.37857 4.00558 6.7258 4.38269C7.07302 4.75979 7.27343 5.27286 7.28413 5.812Z" fill="#B4B6C4"/>
</svg>
